<?xml version="1.0" ?><svg viewBox="0 0 64 64" xmlns="http://www.w3.org/2000/svg"><g id="Asset_money_insurance_security"><path d="M62.6755,34.1391a3.6342,3.6342,0,0,0-3.0478-3.4727c-4.1543-.746-8.1426-4.4335-10.1475-6.5615a3.7074,3.7074,0,0,0-2.6611-1.1719l-.0064.0013-.0063-.0013a3.68,3.68,0,0,0-2.7139,1.168c-2.0088,2.1319-6,5.8194-10.1494,6.5654a3.6513,3.6513,0,0,0-3.0439,3.49,47.9429,47.9429,0,0,0,.7861,9.5234l0,.0012c1.8158,9.576,6.6211,15.9952,13.8979,18.5642a3.6589,3.6589,0,0,0,1.2227.2081,3.4521,3.4521,0,0,0,1.1972-.212c7.2735-2.6357,12.0811-9.0537,13.9043-18.56l0-.0017A45.9129,45.9129,0,0,0,62.6755,34.1391ZM45.4568,42.0776H34.1453A46.1147,46.1147,0,0,1,33.5984,34.2a.938.938,0,0,1,.8213-.875c4.3369-.78,8.3027-3.9717,11.0371-6.7481ZM48.156,59.2739V44.7768H58.9119C57.1833,52.0336,53.5749,56.9008,48.156,59.2739Z"/><path d="M33.4653,28.0091c2.3977-.4312,5.4346-2.4246,8.3711-5.4655.0025-.1317.0112-.2619.0112-.3944A20.2882,20.2882,0,1,0,28.5788,41.1761,52.4475,52.4475,0,0,1,28.2,34.112,6.3562,6.3562,0,0,1,33.4653,28.0091ZM20.237,19.852h2.6045a4.3272,4.3272,0,1,1,0,8.6543h-.0644v2.24a1.35,1.35,0,1,1-2.6992,0v-2.24h-3.042a1.35,1.35,0,0,1,0-2.6992h5.8056a1.628,1.628,0,1,0,0-3.2559H20.237a4.544,4.544,0,0,1-.1591-9.0854V11.2094a1.35,1.35,0,0,1,2.6992,0v2.24h3.3135a1.35,1.35,0,1,1,0,2.6992H20.237a1.8516,1.8516,0,0,0,0,3.7031Z"/></g></svg>