<?xml version="1.0"?>
<svg xmlns="http://www.w3.org/2000/svg" viewBox="0 0 16 16">
    <path style="line-height:normal;text-indent:0;text-align:start;text-decoration-line:none;text-decoration-style:solid;text-decoration-color:#000;text-transform:none;block-progression:tb;isolation:auto;mix-blend-mode:normal" d="M 2.4492188 3 C 2.2112188 3 2.0069844 3.1663906 1.9589844 3.4003906 C 1.7999844 4.1873906 1.1883906 4.8009375 0.40039062 4.9609375 C 0.16839062 5.0079375 0 5.2112187 0 5.4492188 L 0 9.5507812 C 7.4014868e-17 9.7887812 0.16839062 9.9930156 0.40039062 10.041016 C 1.1883906 10.200016 1.7999844 10.812609 1.9589844 11.599609 C 2.0069844 11.833609 2.2112188 12 2.4492188 12 L 13.550781 12 C 13.788781 12 13.993016 11.833609 14.041016 11.599609 C 14.201016 10.811609 14.811609 10.199063 15.599609 10.039062 C 15.831609 9.9920625 16 9.7887812 16 9.5507812 L 16 5.4492188 C 16 5.2112188 15.831609 5.0069844 15.599609 4.9589844 C 14.811609 4.7999844 14.200016 4.1873906 14.041016 3.4003906 C 13.993016 3.1663906 13.788781 3 13.550781 3 L 2.4492188 3 z M 2.828125 4 L 13.171875 4 C 13.472875 4.856 14.144 5.527125 15 5.828125 L 15 9.171875 C 14.144 9.472875 13.472875 10.144 13.171875 11 L 2.828125 11 C 2.527125 10.144 1.856 9.472875 1 9.171875 L 1 5.828125 C 1.856 5.527125 2.527125 4.856 2.828125 4 z M 3 6 L 3 7 L 13 7 L 13 6 L 3 6 z M 3 8 L 3 9 L 13 9 L 13 8 L 3 8 z" font-weight="400" font-family="sans-serif" white-space="normal" overflow="visible"/>
</svg>
