<?xml version="1.0"?>
<svg xmlns="http://www.w3.org/2000/svg" version="1" viewBox="0 0 24 24" enable-background="new 0 0 24 24">
    <path d="M 18.40625 2 C 18.15625 2 17.8875 2.1125 17.6875 2.3125 L 12.40625 7.59375 L 16.40625 11.59375 L 21.6875 6.3125 C 22.0875 5.9125 22.0875 5.20625 21.6875 4.90625 L 19.09375 2.3125 C 18.89375 2.1125 18.65625 2 18.40625 2 z M 11.59375 9.1875 C 9.99375 10.7875 8.1 11.1875 5 11.1875 C 4.4 13.9875 2.8 19.1125 2 21.3125 L 7.09375 16.1875 C 7.09375 15.9875 7 15.8875 7 15.6875 C 7 14.9875 7.6125 14.40625 8.3125 14.40625 C 9.0125 14.40625 9.59375 14.9875 9.59375 15.6875 C 9.49375 16.3875 9.0125 17 8.3125 17 C 8.1125 17 8.0125 17.00625 7.8125 16.90625 L 2.6875 22 C 4.8875 21.3 9.9125 19.6 12.8125 19 C 12.8125 15.9 13.2125 14.00625 14.8125 12.40625 L 11.59375 9.1875 z"/>
</svg>
