<?xml version="1.0" ?><svg id="Layer_1" style="enable-background:new 0 0 512 512;" version="1.1" viewBox="0 0 512 512" xml:space="preserve" xmlns="http://www.w3.org/2000/svg" xmlns:xlink="http://www.w3.org/1999/xlink"><g id="XMLID_763_"><g id="XMLID_765_"><path d="M6,70.3v420.7h91.1V70.3H6z M95,486.3H8.1v-5.9H95V486.3z M95,476.9H8.1V471H95V476.9z M95,467.5H8.1    v-5.9H95V467.5z M95,458H8.1v-5.9H95V458z M95,448.6H8.1v-5.9H95V448.6z M95,439.2H8.1v-5.9H95V439.2z M95,429.7H8.1v-5.9H95    V429.7z M95,420.3H8.1v-5.9H95V420.3z M95,410.9H8.1V405H95V410.9z M95,401.5H8.1v-5.9H95V401.5z M95,392H8.1v-5.9H95V392z     M95,382.6H8.1v-5.9H95V382.6z M95,373.2H8.1v-5.9H95V373.2z M95,363.8H8.1v-5.9H95V363.8z M95,354.3H8.1v-5.9H95V354.3z     M95,344.9H8.1V339H95V344.9z M95,335.5H8.1v-5.9H95V335.5z M95,326.1H8.1v-5.9H95V326.1z M95,316.6H8.1v-5.9H95V316.6z M95,307.2    H8.1v-5.9H95V307.2z M95,297.8H8.1v-5.9H95V297.8z M95,288.4H8.1v-5.9H95V288.4z M95,278.9H8.1V273H95V278.9z M95,269.5H8.1v-5.9    H95V269.5z M95,260.1H8.1v-5.9H95V260.1z M95,250.6H8.1v-5.9H95V250.6z M95,241.2H8.1v-5.9H95V241.2z M95,231.8H8.1v-5.9H95V231.8    z M95,222.4H8.1v-5.9H95V222.4z M95,212.9H8.1v-5.9H95V212.9z M95,203.5H8.1v-5.9H95V203.5z M95,194.1H8.1v-5.9H95V194.1z     M95,184.7H8.1v-5.9H95V184.7z M95,175.2H8.1v-5.9H95V175.2z M95,165.8H8.1v-5.9H95V165.8z M95,156.4H8.1v-5.9H95V156.4z M95,147    H8.1v-5.9H95V147z M95,137.5H8.1v-5.9H95V137.5z M95,128.1H8.1v-5.9H95V128.1z M95,118.7H8.1v-5.9H95V118.7z M95,109.2H8.1v-5.9    H95V109.2z M95,99.8H8.1v-5.9H95V99.8z M95,90.4H8.1v-5.9H95V90.4z M95,81H8.1v-5.9H95V81z" id="XMLID_878_"/><g id="XMLID_863_"><path d="M102.1,132.9v358.2h89V132.9H102.1z M185.9,484.7h-78.6V139.2h78.6V484.7z" id="XMLID_875_"/><rect height="353.4" id="XMLID_874_" width="2.8" x="145.3" y="137.3"/><g id="XMLID_864_"><rect height="2.8" id="XMLID_873_" width="85.7" x="104.1" y="173.9"/><rect height="2.8" id="XMLID_872_" width="85.7" x="104.1" y="208.1"/><rect height="2.8" id="XMLID_871_" width="85.7" x="104.1" y="242.2"/><rect height="2.8" id="XMLID_870_" width="85.7" x="104.1" y="276.4"/><rect height="2.8" id="XMLID_869_" width="85.7" x="104.1" y="310.6"/><rect height="2.8" id="XMLID_868_" width="85.7" x="104.1" y="344.7"/><rect height="2.8" id="XMLID_867_" width="85.7" x="104.1" y="378.9"/><rect height="2.8" id="XMLID_866_" width="85.7" x="104.1" y="413.1"/><rect height="2.8" id="XMLID_865_" width="85.7" x="104.1" y="447.2"/></g></g><path d="M324.4,70.2V491h91.1V70.2H324.4z M413.4,486.2h-86.9v-5.9h86.9V486.2z M413.4,476.8h-86.9v-5.9h86.9    V476.8z M413.4,467.4h-86.9v-5.9h86.9V467.4z M413.4,458h-86.9v-5.9h86.9V458z M413.4,448.5h-86.9v-5.9h86.9V448.5z M413.4,439.1    h-86.9v-5.9h86.9V439.1z M413.4,429.7h-86.9v-5.9h86.9V429.7z M413.4,420.2h-86.9v-5.9h86.9V420.2z M413.4,410.8h-86.9v-5.9h86.9    V410.8z M413.4,401.4h-86.9v-5.9h86.9V401.4z M413.4,392h-86.9v-5.9h86.9V392z M413.4,382.5h-86.9v-5.9h86.9V382.5z M413.4,373.1    h-86.9v-5.9h86.9V373.1z M413.4,363.7h-86.9v-5.9h86.9V363.7z M413.4,354.3h-86.9v-5.9h86.9V354.3z M413.4,344.8h-86.9V339h86.9    V344.8z M413.4,335.4h-86.9v-5.9h86.9V335.4z M413.4,326h-86.9v-5.9h86.9V326z M413.4,316.6h-86.9v-5.9h86.9V316.6z M413.4,307.1    h-86.9v-5.9h86.9V307.1z M413.4,297.7h-86.9v-5.9h86.9V297.7z M413.4,288.3h-86.9v-5.9h86.9V288.3z M413.4,278.8h-86.9V273h86.9    V278.8z M413.4,269.4h-86.9v-5.9h86.9V269.4z M413.4,260h-86.9v-5.9h86.9V260z M413.4,250.6h-86.9v-5.9h86.9V250.6z M413.4,241.1    h-86.9v-5.9h86.9V241.1z M413.4,231.7h-86.9v-5.9h86.9V231.7z M413.4,222.3h-86.9v-5.9h86.9V222.3z M413.4,212.9h-86.9V207h86.9    V212.9z M413.4,203.4h-86.9v-5.9h86.9V203.4z M413.4,194h-86.9v-5.9h86.9V194z M413.4,184.6h-86.9v-5.9h86.9V184.6z M413.4,175.2    h-86.9v-5.9h86.9V175.2z M413.4,165.7h-86.9v-5.9h86.9V165.7z M413.4,156.3h-86.9v-5.9h86.9V156.3z M413.4,146.9h-86.9V141h86.9    V146.9z M413.4,137.4h-86.9v-5.9h86.9V137.4z M413.4,128h-86.9v-5.9h86.9V128z M413.4,118.6h-86.9v-5.9h86.9V118.6z M413.4,109.2    h-86.9v-5.9h86.9V109.2z M413.4,99.7h-86.9v-5.9h86.9V99.7z M413.4,90.3h-86.9v-5.9h86.9V90.3z M413.4,80.9h-86.9V75h86.9V80.9z" id="XMLID_819_"/><g id="XMLID_804_"><path d="M417,132.8V491h89V132.8H417z M500.8,484.7h-78.6V139.1h78.6V484.7z" id="XMLID_816_"/><rect height="353.4" id="XMLID_815_" width="2.8" x="460.1" y="137.2"/><g id="XMLID_805_"><rect height="2.8" id="XMLID_814_" width="85.7" x="418.9" y="173.8"/><rect height="2.8" id="XMLID_813_" width="85.7" x="418.9" y="208"/><rect height="2.8" id="XMLID_812_" width="85.7" x="418.9" y="242.2"/><rect height="2.8" id="XMLID_811_" width="85.7" x="418.9" y="276.3"/><rect height="2.8" id="XMLID_810_" width="85.7" x="418.9" y="310.5"/><rect height="2.8" id="XMLID_809_" width="85.7" x="418.9" y="344.7"/><rect height="2.8" id="XMLID_808_" width="85.7" x="418.9" y="378.8"/><rect height="2.8" id="XMLID_807_" width="85.7" x="418.9" y="413"/><rect height="2.8" id="XMLID_806_" width="85.7" x="418.9" y="447.1"/></g></g><rect height="420.8" id="XMLID_3765_" width="3.7" x="49.7" y="70.2"/><g id="XMLID_791_"><g id="XMLID_3769_"><rect height="2.8" id="XMLID_3770_" width="135.9" x="188.5" y="380.8"/><rect height="2" id="XMLID_3771_" width="135.9" x="188.5" y="277.9"/></g><rect height="104.3" id="XMLID_3766_" width="1.3" x="249.3" y="278.9"/><rect height="104.3" id="XMLID_803_" width="1.3" x="264.7" y="278.9"/><rect height="104.3" id="XMLID_802_" width="1.3" x="280" y="278.9"/><rect height="104.3" id="XMLID_801_" width="1.3" x="295.4" y="278.9"/><rect height="104.3" id="XMLID_800_" width="1.3" x="310.7" y="278.9"/><rect height="104.3" id="XMLID_799_" width="1.3" x="203.3" y="278.9"/><rect height="1.3" id="XMLID_798_" width="134.9" x="189.9" y="329.4"/><rect height="1.3" id="XMLID_797_" width="134.9" x="189.9" y="312.8"/><rect height="1.3" id="XMLID_796_" width="134.9" x="189.9" y="296.1"/><rect height="1.3" id="XMLID_795_" width="134.9" x="189.9" y="362.8"/><rect height="1.3" id="XMLID_794_" width="134.9" x="189.9" y="346.1"/><rect height="104.3" id="XMLID_793_" width="1.3" x="218.6" y="278.9"/><rect height="104.3" id="XMLID_792_" width="1.3" x="234" y="278.9"/></g><rect height="23.7" id="XMLID_790_" width="0.8" x="299.3" y="448.2"/><rect height="0.8" id="XMLID_789_" width="29.8" x="284.8" y="459.3"/><rect height="23.4" id="XMLID_788_" width="0.8" x="213.5" y="448"/><rect height="0.8" id="XMLID_787_" width="27.3" x="200.2" y="459.3"/><path d="M192.9,384.4v105.7h131.5V384.4H192.9z M226.9,474.1h-26.1v-2.8h26.1V474.1z M226.9,471h-26.1v-22.6h26.1    V471z M226.9,447.9h-26.1v-2.8h26.1V447.9z M236.9,425.6h-35.6v-36.7h35.6V425.6z M270.2,485.4H244V454c0-8.5,5.4-15.3,12.1-15.3    h1.9c6.7,0,12.1,6.9,12.1,15.3V485.4z M312.7,448.4V471h-26.1v-22.6H312.7z M286.6,447.9v-2.8h26.1v2.8H286.6z M312.8,474.1h-26.1    v-2.8h26.1V474.1z M313.7,425.6H278v-36.7h35.6V425.6z" id="XMLID_776_"/><rect height="53" id="XMLID_3805_" width="37.2" x="197" y="111.7"/><rect height="53" id="XMLID_775_" width="37.2" x="281.3" y="111.7"/><polygon id="XMLID_3806_" points="318.5,111.7 197,99.4 197,79.9 318.5,110.2   "/><rect height="28.2" id="XMLID_774_" width="130.5" x="192.1" y="247.7"/><g id="XMLID_767_"><path d="M192.1,163.9v81.9h131.1v-81.9H192.1z M321.1,243.6H194.2v-77.5h126.9V243.6z" id="XMLID_771_"/><rect height="80.6" id="XMLID_770_" width="1.5" x="255.7" y="163.9"/><rect height="80.6" id="XMLID_3804_" width="1.5" x="287.7" y="163.9"/><rect height="80.6" id="XMLID_769_" width="1.5" x="223.8" y="163.9"/><rect height="1.5" id="XMLID_768_" width="129.2" x="193.4" y="203.5"/></g><rect height="1.8" id="XMLID_766_" transform="matrix(0.6755 0.7373 -0.7373 0.6755 180.0541 -143.2822)" width="86.4" x="209.6" y="132"/></g><path d="M97.1,68.4H6V32c0-6.1,5-11.1,11.1-11.1H86c6.1,0,11.1,5,11.1,11.1V68.4z" id="XMLID_764_"/></g></svg>